<?xml version="1.0" standalone="no"?>
<!DOCTYPE svg PUBLIC "-//W3C//DTD SVG 20010904//EN"
 "http://www.w3.org/TR/2001/REC-SVG-20010904/DTD/svg10.dtd">
<svg version="1.0" xmlns="http://www.w3.org/2000/svg"
 width="129.000000pt" height="129.000000pt" viewBox="0 0 129.000000 129.000000"
 preserveAspectRatio="xMidYMid meet">
<metadata>
Created by potrace 1.11, written by Peter Selinger 2001-2013
</metadata>
<g transform="translate(0.000000,129.000000) scale(0.100000,-0.100000)"
fill="#000000" stroke="none">
<path d="M502 1217 c-21 -22 -32 -43 -32 -63 0 -24 -6 -32 -30 -41 -27 -10
-33 -9 -55 13 -31 31 -69 31 -100 -1 -30 -29 -32 -68 -4 -96 26 -26 17 -63
-12 -54 -39 13 -100 -6 -142 -44 -51 -46 -67 -85 -67 -162 0 -71 18 -104 74
-134 30 -16 36 -25 36 -53 0 -22 -6 -35 -17 -39 -75 -26 -67 -123 9 -123 19 0
32 -10 48 -35 20 -32 20 -36 6 -57 -32 -46 -15 -101 39 -124 91 -38 158 68 86
135 -24 23 -32 44 -50 130 -26 127 -26 131 -1 131 27 0 110 42 132 67 24 26
48 87 48 120 0 15 -9 47 -20 70 -17 39 -18 43 -2 52 11 6 26 4 44 -5 59 -31
116 38 72 87 -24 27 -7 75 36 97 64 32 77 96 28 142 -35 32 -87 27 -126 -13z
m-40 -146 c-22 -31 -30 -37 -45 -29 -32 16 -3 44 70 67 2 1 -10 -16 -25 -38z
m74 4 c9 -22 -3 -62 -18 -62 -7 0 -17 -2 -23 -3 -39 -10 -44 9 -14 51 22 32
46 38 55 14z m-121 -55 c3 -5 -4 -23 -17 -40 -18 -25 -27 -30 -48 -25 -48 12
-47 28 5 57 36 19 52 22 60 8z m46 -32 c-1 -5 -1 -17 -1 -28 0 -24 -45 -49
-60 -34 -12 12 30 75 48 72 7 -2 13 -6 13 -10z m-226 -386 c6 -4 19 -50 29
-102 9 -52 20 -105 22 -116 4 -14 0 -23 -10 -27 -24 -9 -70 65 -73 117 -1 22
-5 62 -8 89 -6 41 -5 47 11 47 11 0 24 -4 29 -8z"/>
<path d="M745 1182 c-40 -25 -94 -88 -111 -128 -19 -46 -18 -134 2 -163 15
-20 15 -25 1 -38 -12 -12 -19 -13 -36 -3 -55 29 -115 -46 -72 -89 25 -25 58
-27 81 -6 15 14 21 14 53 0 34 -14 209 -65 270 -79 23 -5 27 -12 27 -39 0 -75
87 -120 160 -82 36 19 50 43 50 87 0 48 -24 76 -76 89 -62 16 -76 46 -39 83
36 36 55 86 55 146 0 63 -25 114 -79 163 -61 55 -98 70 -181 74 -61 4 -81 1
-105 -15z m25 -416 c64 -26 124 -30 185 -10 49 15 58 15 66 3 12 -19 11 -29
-3 -29 -6 0 -22 -10 -35 -22 l-23 -21 -102 27 c-159 43 -222 68 -226 90 -2 11
4 26 14 33 16 12 22 9 54 -21 19 -19 51 -42 70 -50z"/>
<path d="M715 668 c-30 -16 -45 -39 -45 -67 0 -19 -11 -33 -42 -53 l-42 -27
-29 25 c-36 31 -66 38 -121 30 -75 -12 -120 -80 -101 -153 8 -35 86 -113 113
-113 12 0 28 -13 40 -34 l20 -33 -29 -27 c-53 -50 -28 -133 45 -152 33 -8 97
23 112 55 7 12 34 36 62 52 l50 28 18 -21 c28 -31 89 -58 129 -58 52 0 94 22
147 76 128 132 45 314 -143 314 -38 0 -91 41 -70 55 6 3 11 21 11 39 0 60 -68
95 -125 64z m-19 -132 c4 -11 -38 -130 -51 -144 -2 -2 -12 -1 -22 2 -15 5 -18
16 -17 61 0 51 3 58 30 75 34 23 53 25 60 6z m144 -37 c0 -4 -9 -10 -20 -14
-10 -3 -39 -32 -63 -64 -37 -50 -46 -57 -65 -50 -12 5 -22 11 -22 14 0 2 12
34 26 70 25 62 28 65 59 65 19 0 37 5 40 11 7 11 45 -16 45 -32z m-221 -128
c11 -7 9 -20 -9 -70 -20 -54 -26 -61 -49 -61 -31 0 -76 60 -51 68 7 3 29 20
49 38 40 37 40 37 60 25z m66 -21 c23 -9 25 -14 19 -44 -4 -23 -1 -45 9 -64
14 -30 14 -30 -25 -52 -22 -12 -40 -20 -42 -19 -39 59 -39 57 -15 125 13 35
24 64 25 64 2 0 14 -4 29 -10z"/>
</g>
</svg>
